<svg xmlns="http://www.w3.org/2000/svg" xmlns:xlink="http://www.w3.org/1999/xlink" id="Layer_1" data-name="Layer 1" viewBox="0 0 211.38 113.28" width="211.38" height="113.28"><metadata><rdf:RDF xmlns:rdf="http://www.w3.org/1999/02/22-rdf-syntax-ns#" xmlns:dc="http://purl.org/dc/elements/1.1/"><rdf:Description><dc:creator>RealFaviconGenerator</dc:creator><dc:source>https://realfavicongenerator.net</dc:source></rdf:Description></rdf:RDF></metadata><defs>
    <style>
      .cls-1 {
        filter: url(#drop-shadow-7);
      }

      .cls-2 {
        filter: url(#drop-shadow-8);
      }

      .cls-3 {
        fill: #231f20;
      }
    </style>
    <filter id="drop-shadow-7" filterUnits="userSpaceOnUse">
      <feOffset dx=".96" dy=".96"></feOffset>
      <feGaussianBlur result="blur" stdDeviation="2.7"></feGaussianBlur>
      <feFlood flood-color="#000" flood-opacity=".97"></feFlood>
      <feComposite in2="blur" operator="in"></feComposite>
      <feComposite in="SourceGraphic"></feComposite>
    </filter>
    <filter id="drop-shadow-8" filterUnits="userSpaceOnUse">
      <feOffset dx="1.41" dy="1.41"></feOffset>
      <feGaussianBlur result="blur-2" stdDeviation="0"></feGaussianBlur>
      <feFlood flood-color="#000" flood-opacity=".21"></feFlood>
      <feComposite in2="blur-2" operator="in"></feComposite>
      <feComposite in="SourceGraphic"></feComposite>
    </filter>
  </defs><g class="cls-1">
    <path class="cls-3" d="m6.04,5.53h4.39c.14,2.49.02,4.96.05,7.42.03,2.51.02,5.02.03,7.54,0,2.48,0,4.96-.01,7.44,0,2.51,0,5.02,0,7.54,0,2.48,0,4.96,0,7.44,0,2.48,0,4.96,0,7.44,0,2.51.01,5.02.01,7.54,0,2.48,0,4.96-.01,7.44s-.01,4.96-.02,7.44c0,2.51,0,5.02,0,7.54,0,2.48.01,4.96.01,7.44,0,2.51-.01,5.02-.02,7.54,0,2.47,0,4.95,0,7.53h194.87v4.25s-.02.02-.04.04c-.02.02-.05.06-.08.06-.16.03-.33.06-.49.06-66.12,0-132.23.01-198.35.02-.09,0-.18-.05-.35-.1V5.53Z"></path>
    <g class="cls-2">
      <path class="cls-3" d="m133.69,73.7c-.28-4.85.88-9.03,4.53-12.21,1.96-1.71,4.11-3.21,6.18-4.79,1.45-1.1,2.89-2.22,3.95-3.72,1.23-1.73,1.23-3.97,0-5.65-.79-1.09-1.91-1.61-3.22-1.7-2.07-.15-3.83.62-5.31,2.01-.6.56-1.09,1.24-1.62,1.87-.17.2-.32.4-.47.58-.12-.02-.21,0-.25-.05-1.18-1.2-2.36-2.4-3.54-3.6-.32-.33-.28-.63,0-.95,2.08-2.42,4.43-4.41,7.67-5.16,1.94-.45,3.87-.53,5.8-.21,2.37.4,4.46,1.38,6.17,3.13,2.02,2.07,2.46,4.61,2.2,7.34-.2,2.02-.95,3.84-2.22,5.43-1.37,1.71-2.96,3.2-4.71,4.52-1.61,1.21-3.24,2.41-4.77,3.71-.79.67-1.43,1.54-2.09,2.36-.21.26-.28.63-.47,1.08.46.05.77.11,1.09.11,3.04.05,6.08.08,9.12.12,1.18.02,2.37.04,3.63.07.23,1.94.09,3.77.12,5.72-.37.04-.69.09-1,.09-6.25,0-12.5,0-18.74,0-.65,0-1.31-.06-2.05-.1Z"></path>
      <path class="cls-3" d="m58.74,73.69v-33.29c6.83-.09,13.58,0,20.41-.01.18,1.99.2,3.85.09,5.82-4.55.18-9,.09-13.41.15-.25.74-.38,6.33-.2,7.88,3.73.21,7.48.03,11.28.15.06.26.14.48.15.69.04,1.45.07,2.91.08,4.36,0,.92-.08,1-1.04,1.01-3.01.02-6.02.02-9.03.03-.45,0-.9.05-1.44.09-.14,4.43.02,8.77-.11,13.12h-6.78Z"></path>
      <path class="cls-3" d="m117.56,73.78c-6.81,0-13.46.08-20.15-.07v-33.31c2.29-.14,4.51-.09,6.87-.04.09,9.16,0,18.19.09,27.35,4.4.2,8.71.03,13.1.15.27,1.96.18,3.85.1,5.92Z"></path>
    </g>
  </g><style>@media (prefers-color-scheme: light) { :root { filter: none; } }
@media (prefers-color-scheme: dark) { :root { filter: invert(100%); } }
</style></svg>