<svg width="20" height="20" viewBox="0 0 20 20" fill="none" xmlns="http://www.w3.org/2000/svg">
<path d="M10 13.125C11.7259 13.125 13.125 11.7259 13.125 10C13.125 8.27411 11.7259 6.875 10 6.875C8.27411 6.875 6.875 8.27411 6.875 10C6.875 11.7259 8.27411 13.125 10 13.125Z" stroke="#FBF7F0" stroke-miterlimit="10"/>
<path d="M13.75 2.5H6.25C4.17893 2.5 2.5 4.17893 2.5 6.25V13.75C2.5 15.8211 4.17893 17.5 6.25 17.5H13.75C15.8211 17.5 17.5 15.8211 17.5 13.75V6.25C17.5 4.17893 15.8211 2.5 13.75 2.5Z" stroke="#FBF7F0" stroke-linecap="round" stroke-linejoin="round"/>
<path d="M14.0625 6.875C14.5803 6.875 15 6.45527 15 5.9375C15 5.41973 14.5803 5 14.0625 5C13.5447 5 13.125 5.41973 13.125 5.9375C13.125 6.45527 13.5447 6.875 14.0625 6.875Z" fill="#FBF7F0"/>
</svg>
