<svg width="20" height="20" viewBox="0 0 20 20" fill="none" xmlns="http://www.w3.org/2000/svg">
<path d="M12.5 10L8.75 7.5V12.5L12.5 10Z" stroke="#FBF7F0" stroke-linecap="round" stroke-linejoin="round"/>
<path d="M1.875 10C1.875 12.3367 2.11484 13.707 2.29766 14.4117C2.346 14.6034 2.43911 14.7809 2.56935 14.9296C2.69959 15.0783 2.86325 15.194 3.04688 15.2672C5.66563 16.2774 10 16.25 10 16.25C10 16.25 14.3344 16.2774 16.9531 15.2672C17.1373 15.1944 17.3016 15.0789 17.4324 14.9302C17.5632 14.7814 17.6568 14.6037 17.7055 14.4117C17.8883 13.7086 18.1281 12.3367 18.1281 10C18.1281 7.66329 17.8883 6.29298 17.7055 5.58829C17.6574 5.39558 17.564 5.2171 17.4332 5.06765C17.3024 4.9182 17.1378 4.80208 16.9531 4.72892C14.3344 3.72267 10 3.75001 10 3.75001C10 3.75001 5.66563 3.72267 3.04688 4.73282C2.86221 4.80599 2.69765 4.92211 2.56681 5.07156C2.43597 5.22101 2.34264 5.39948 2.29453 5.5922C2.11484 6.2922 1.875 7.66329 1.875 10Z" stroke="#FBF7F0" stroke-linecap="round" stroke-linejoin="round"/>
</svg>
